<?xml version="1.0" encoding="UTF-8"?><svg xmlns="http://www.w3.org/2000/svg" viewBox="0 0 114 30"><defs><style>.e{fill:red;fill-rule:evenodd;}.f{fill:#424242;}</style></defs><g id="a"/><g id="b"><g id="c"><g id="d"><g><g><rect class="f" x="36.01" y="9" width="3.62" height="12"/><path class="f" d="M48.47,21v-6.97c0-1.79-.66-2.54-2.02-2.54s-2.02,.75-2.02,2.54v6.97h-3.48V9h3.48v1.34c.75-.96,2.14-1.46,3.39-1.46,2.78,0,4.12,1.58,4.12,4.92l.02,7.2h-3.48Z"/><path class="f" d="M59.2,20.56c-.45,.28-1.15,.56-2.45,.56-2.19,0-3.48-1.22-3.48-4.66V6h3.65v3h2.28v2.87h-2.28v4.33c0,1.84,.75,2.57,2.28,2.02v2.33Z"/><path class="f" d="M63.41,16.11c0,1.37,1.34,2.14,2.69,2.14,.94,0,2.02-.38,2.73-1.13l2.17,2c-1.27,1.25-2.89,2-5.08,2.01-3.81,0-6.15-2.7-6.15-6.13,0-3.44,2.32-6.1,5.92-6.1,3.67,0,5.96,2.6,5.96,6.09v1.2l-8.23-.06Zm2.28-4.36c-1.27,0-2.28,.85-2.28,2.14h4.59c0-1.3-.99-2.15-2.31-2.14Z"/><path class="f" d="M78.77,11.75c-2.07,0-2.54,1.55-2.54,4.4v4.85h-3.65V9h3.65v1.98c.38-1.32,1.29-2.09,2.92-2.09,.87,0,1.51,.35,1.88,.82l-.52,2.8c-.16-.16-.75-.75-1.74-.75Z"/><path class="f" d="M92.36,9v6.97c0,1.79,.66,2.54,2.02,2.54s2.02-.75,2.02-2.54v-6.97h3.48v12h-3.48v-1.34c-.75,.96-2.14,1.46-3.39,1.46-2.78,0-4.12-1.58-4.12-4.92l-.02-7.2h3.48Z"/><path class="f" d="M114,15c0,4.05-2.33,6.12-5.29,6.12-1.2,0-2.85-.38-3.86-1.72v1.6h-3.65V6h3.65v4.6c1.01-1.34,2.66-1.72,3.86-1.72,2.97,0,5.29,2.31,5.29,6.12Zm-3.65,0c0-1.91-.99-3.25-2.75-3.25s-2.75,1.34-2.75,3.25,.99,3.25,2.75,3.25,2.75-1.37,2.75-3.25Z"/><path class="f" d="M87.75,20.56c-.45,.28-1.15,.56-2.45,.56-2.19,0-3.48-1.22-3.48-4.66V6h3.65v10.2c0,1.84,.75,2.57,2.28,2.02v2.33Z"/></g><g><path class="e" d="M27.95,7.43c.36,1.21,.55,2.49,.55,3.82,0,7.46-6.05,13.5-13.5,13.5-5.39,0-9.75-4.37-9.75-9.75S9.62,5.25,15,5.25s9.75,4.37,9.75,9.75c0,.25,0,.5-.03,.75,.74-1.47,1.15-3.12,1.15-4.88C25.88,4.87,21.01,0,15,0,6.72,0,0,6.72,0,15s6.72,15,15,15,15-6.72,15-15c0-2.76-.75-5.35-2.05-7.57Z"/><path class="e" d="M15,8.25c-3.73,0-6.75,3.02-6.75,6.75s3.02,6.75,6.75,6.75,6.75-3.02,6.75-6.75-3.02-6.75-6.75-6.75Zm0,10.5c-2.07,0-3.75-1.68-3.75-3.75s1.68-3.75,3.75-3.75,3.75,1.68,3.75,3.75-1.68,3.75-3.75,3.75Z"/></g></g></g></g></g></svg>